<svg xmlns="http://www.w3.org/2000/svg" width="15.099" height="21.378" viewBox="0 0 15.099 21.378">
  <g id="microphone" transform="translate(0.26 0.25)">
    <g id="Group_1795" data-name="Group 1795" transform="translate(273.81 352.488)">
      <path id="Path_983" data-name="Path 983" d="M-259.241-334.923a7.39,7.39,0,0,1-2.473,4.428,7.365,7.365,0,0,1-3.743,1.714v1.607h2.267a.838.838,0,0,1,.838.838.837.837,0,0,1-.838.838H-269.4a.838.838,0,0,1-.838-.838.838.838,0,0,1,.838-.838h2.267v-1.554a7.362,7.362,0,0,1-4.194-1.766,7.386,7.386,0,0,1-2.473-4.428.838.838,0,0,1,.7-.958.839.839,0,0,1,.959.7,5.739,5.739,0,0,0,5.624,4.807,5.74,5.74,0,0,0,5.624-4.807.838.838,0,0,1,.958-.7.839.839,0,0,1,.7.958Z" transform="translate(0 -6.111)" fill="#ff8b00" stroke="#fff" stroke-width="0.5"/>
      <path id="Path_984" data-name="Path 984" d="M-264.655-352.488a4.1,4.1,0,0,0-4.09,4.09v6.215a4.094,4.094,0,0,0,4.09,4.09,4.094,4.094,0,0,0,4.089-4.09V-348.4A4.1,4.1,0,0,0-264.655-352.488Zm2.414,10.305a2.417,2.417,0,0,1-2.414,2.415,2.418,2.418,0,0,1-2.415-2.415V-348.4a2.417,2.417,0,0,1,2.415-2.414h0a2.417,2.417,0,0,1,2.414,2.414Z" transform="translate(-1.865 0)" fill="#ff8b00" stroke="#fff" stroke-width="0.5"/>
    </g>
  </g>
</svg>
