<svg id="search" xmlns="http://www.w3.org/2000/svg" width="16.402" height="16.555" viewBox="0 0 16.402 16.555">
  <path id="Path_959" data-name="Path 959" d="M-228.649-225.1a7.516,7.516,0,0,0,4.8-1.73l3.03,3.031a.6.6,0,0,0,.427.179.6.6,0,0,0,.427-.179.607.607,0,0,0,0-.858l-3.018-3.018a7.5,7.5,0,0,0,1.87-4.961,7.547,7.547,0,0,0-7.539-7.539,7.542,7.542,0,0,0-7.537,7.537,7.547,7.547,0,0,0,7.539,7.539Zm0-13.867a6.334,6.334,0,0,1,6.327,6.328,6.334,6.334,0,0,1-6.327,6.327,6.336,6.336,0,0,1-6.327-6.327A6.336,6.336,0,0,1-228.649-238.97Z" transform="translate(236.188 240.179)" fill="#2e3191"/>
</svg>
